<svg xmlns="http://www.w3.org/2000/svg" viewBox="0 0 32 32" fill="none">
  <defs>
    <linearGradient id="neon" x1="3" y1="16" x2="30" y2="16" gradientUnits="userSpaceOnUse">
      <stop offset="0%" stop-color="#E040FB"/>
      <stop offset="45%" stop-color="#A040E0"/>
      <stop offset="100%" stop-color="#00E5FF"/>
    </linearGradient>
    <filter id="glow" x="-30%" y="-30%" width="160%" height="160%">
      <feGaussianBlur stdDeviation="1.2" result="blur"/>
      <feMerge>
        <feMergeNode in="blur"/>
        <feMergeNode in="SourceGraphic"/>
      </feMerge>
    </filter>
  </defs>
  <rect width="32" height="32" rx="7" fill="#071518"/>
  <!-- Glow layer -->
  <path d="M30 16C30 10 25 7 22 9C19 11 17.5 13.5 16 16C14.5 18.5 13 21 10 23C7 25 3 22 3 16C3 10 7 7 10 9C13 11 14.5 13.5 16 16C17.5 18.5 19 21 22 23C25 25 30 22 30 16Z"
        stroke="url(#neon)" stroke-width="5" stroke-linecap="round" stroke-linejoin="round" opacity="0.4" filter="url(#glow)"/>
  <!-- Main stroke -->
  <path d="M30 16C30 10 25 7 22 9C19 11 17.5 13.5 16 16C14.5 18.5 13 21 10 23C7 25 3 22 3 16C3 10 7 7 10 9C13 11 14.5 13.5 16 16C17.5 18.5 19 21 22 23C25 25 30 22 30 16Z"
        stroke="url(#neon)" stroke-width="2.5" stroke-linecap="round" stroke-linejoin="round"/>
</svg>
